HIERARCHY
ROOT Hips
{
	OFFSET 0.00000 0.00000 0.00000
	CHANNELS 6 Xposition Yposition Zposition Zrotation Yrotation Xrotation 
	JOINT LHipJoint
	{
		OFFSET 0 0 0
		CHANNELS 3 Zrotation Yrotation Xrotation
		JOINT LeftHip
		{
			OFFSET 1.44960 -1.75505 0.85172
			CHANNELS 3 Zrotation Yrotation Xrotation
			JOINT LeftKnee
			{
				OFFSET 2.40573 -6.60971 0.00000
				CHANNELS 3 Zrotation Yrotation Xrotation
				JOINT LeftAnkle
				{
					OFFSET 2.58773 -7.10974 0.00000
					CHANNELS 3 Zrotation Yrotation Xrotation
					JOINT LeftToe
					{
						OFFSET 0.18252 -0.50147 1.77316
						CHANNELS 3 Zrotation Yrotation Xrotation
						End Site
						{
							OFFSET 0.00000 -0.00000 0.92990
						}
					}
				}
			}
		}
	}
	JOINT RHipJoint
	{
		OFFSET 0 0 0
		CHANNELS 3 Zrotation Yrotation Xrotation
		JOINT RightHip
		{
			OFFSET -1.40744 -1.75505 0.85172
			CHANNELS 3 Zrotation Yrotation Xrotation
			JOINT RightKnee
			{
				OFFSET -2.43714 -6.69600 0.00000
				CHANNELS 3 Zrotation Yrotation Xrotation
				JOINT RightAnkle
				{
					OFFSET -2.51650 -6.91404 0.00000
					CHANNELS 3 Zrotation Yrotation Xrotation
					JOINT RightToe
					{
						OFFSET -0.25383 -0.69740 1.96384
						CHANNELS 3 Zrotation Yrotation Xrotation
						End Site
						{
							OFFSET -0.00000 -0.00000 1.04244
						}
					}
				}
			}
		}
	}
	JOINT lowerback
	{
		OFFSET 0 0 0
		CHANNELS 3 Zrotation Yrotation Xrotation
		JOINT Chest
		{
			OFFSET 0.00579 2.14458 -0.24367
			CHANNELS 3 Zrotation Yrotation Xrotation
			JOINT Chest2
			{
				OFFSET 0.05899 2.16316 -0.04515
				CHANNELS 3 Zrotation Yrotation Xrotation
				JOINT lowerneck
				{
					OFFSET 0 0 0
					CHANNELS 3 Zrotation Yrotation Xrotation
					JOINT Neck
					{
						OFFSET -0.01650 1.59577 0.24841
						CHANNELS 3 Zrotation Yrotation Xrotation
						JOINT Head
						{
							OFFSET -0.01016 1.63072 -0.17782
							CHANNELS 3 Zrotation Yrotation Xrotation
							End Site
							{
								OFFSET -0.00250 1.64111 -0.08717
							}
						}
					}
				}
				JOINT LeftCollar
				{
					OFFSET 0 0 0
					CHANNELS 3 Zrotation Yrotation Xrotation
					JOINT LeftShoulder
					{
						OFFSET 3.17745 0.95174 -0.45729
CHANNELS 3 Zrotation Xrotation Yrotation
						JOINT LeftElbow
						{
OFFSET 0 -4.934850 0.000000
CHANNELS 3 Zrotation Xrotation Yrotation
							JOINT LeftWrist
							{
OFFSET 0 -3.417190 -0.000000
CHANNELS 3 Zrotation Xrotation Yrotation
								JOINT lhand
								{
									OFFSET 0 0 0
CHANNELS 3 Zrotation Xrotation Yrotation
									JOINT LFingers
									{
OFFSET 0 -0.624100 -0.000000
CHANNELS 3 Zrotation Xrotation Yrotation
										End Site
										{
OFFSET 0 -0.503170 -0.000000
										}
									}
								}
								JOINT LThumb
								{
OFFSET 0 0.000000 0.000000
CHANNELS 3 Zrotation Xrotation Yrotation
									End Site
									{
OFFSET 0 -0.510850 0.510850
									}
								}
							}
						}
					}
				}
				JOINT RightCollar
				{
					OFFSET 0 0 0
					CHANNELS 3 Zrotation Yrotation Xrotation
					JOINT RightShoulder
					{
						OFFSET -2.87924 1.13038 -0.75204
CHANNELS 3 Zrotation Xrotation Yrotation
						JOINT RightElbow
						{
OFFSET 0 -5.220340 0.000000
CHANNELS 3 Zrotation Xrotation Yrotation
							JOINT RightWrist
							{
OFFSET 0 -3.418090 -0.000000
CHANNELS 3 Zrotation Xrotation Yrotation
								JOINT rhand
								{
									OFFSET 0 0 0
CHANNELS 3 Zrotation Xrotation Yrotation
									JOINT RFingers
									{
OFFSET 0 -0.775340 -0.000000
CHANNELS 3 Zrotation Xrotation Yrotation
										End Site
										{
OFFSET 0 -0.625100 -0.000000
										}
									}
								}
								JOINT RThumb
								{
OFFSET 0 0.000000 0.000000
CHANNELS 3 Zrotation Xrotation Yrotation
									End Site
									{
OFFSET 0 -0.634640 0.634640
									}
								}
							}
						}
					}
				}
			}
		}
	}
}
MOTION
Frames: 7
Frame Time: 0.008333333333333333
1.725711 17.271609 -21.653155 4.098887 7.329922 2.167174 0.000000 0.000000 0.000000 -29.197718 -4.011740 7.204192 0.579505 4.874115 13.549926 1.060675 -5.565721 -18.406768 0.279928 3.400306 9.395570 0.000000 0.000000 0.000000 9.144243 10.596855 -30.088091 -0.707791 -5.376480 14.985647 -0.132041 -12.036406 -18.788556 -0.056136 -1.512419 4.160255 -5.436635 -2.553692 8.378173 0.523898 -3.835531 2.053025 3.968230 -1.892408 -2.163078 0.413549 -1.151797 -19.793080 -1.648887 -1.360657 15.703254 -0.791003 -0.792504 8.103684 0.000000 0.000000 0.000000 6.972184 4.596623 -24.692701 24.954674 -36.157338 8.263314 4.741876 5.166319 -42.543183 0.000000 0.000000 0.000000 -7.125000 0.000000 0.000000 -44.553032 67.555659 26.172275 0.000000 0.000000 0.000000 -4.240227 8.795387 -22.389252 -6.367299 -10.873184 -0.606837 -15.737687 8.098967 -16.048472 0.000000 0.000000 0.000000 7.125000 0.000000 0.000000 8.017171 13.458150 5.991413
1.718503 17.259008 -21.535923 4.126504 7.171732 2.353672 0.000000 0.000000 0.000000 -29.153453 -3.660846 7.592643 0.534278 4.682964 13.006692 1.062447 -5.477376 -18.426330 0.247792 3.202845 8.844129 0.000000 0.000000 0.000000 9.046901 10.705757 -30.431146 -0.683144 -5.284462 14.721793 -0.145966 -12.229023 -19.190095 -0.036096 -1.225459 3.369351 -5.556380 -2.462724 8.364888 0.671808 -3.719092 2.090184 4.176865 -1.836901 -2.111221 0.342680 -1.125158 -19.937720 -1.570770 -1.321307 15.428455 -0.747257 -0.770060 8.037729 0.000000 0.000000 0.000000 6.660240 4.646611 -24.597343 24.635064 -35.828408 8.075372 4.366236 5.239973 -42.181434 0.000000 0.000000 0.000000 -7.125000 0.000000 0.000000 -44.265645 67.192247 25.621013 0.000000 0.000000 0.000000 -4.493911 8.972534 -22.185240 -6.392280 -10.914813 -0.611427 -15.609890 7.786497 -16.076264 0.000000 0.000000 0.000000 7.125000 0.000000 0.000000 8.103178 13.441977 6.059732
1.709952 17.250716 -21.423451 4.135809 7.147525 2.482337 0.000000 0.000000 0.000000 -29.068208 -3.488852 7.994485 0.507959 4.568475 12.681767 1.022087 -5.116555 -18.083825 0.218809 3.011484 8.310632 0.000000 0.000000 0.000000 9.124089 10.451560 -30.765634 -0.664431 -5.212868 14.516732 -0.051944 -12.770573 -18.797586 -0.040182 -1.293539 3.556897 -5.465676 -2.465058 8.598786 0.762406 -3.727972 1.994192 4.238363 -1.831944 -2.339536 0.072048 -1.171678 -19.593433 -1.466211 -1.330418 15.229039 -0.665031 -0.778800 7.914808 0.000000 0.000000 0.000000 6.322273 4.900138 -24.302287 24.313707 -35.494231 7.887949 4.321807 5.380815 -42.312145 0.000000 0.000000 0.000000 -7.125000 0.000000 0.000000 -44.520992 67.271332 25.863833 0.000000 0.000000 0.000000 -4.828068 8.973502 -23.888759 -6.057459 -10.357969 -0.549598 -15.881188 9.476098 -16.347548 0.000000 0.000000 0.000000 7.125000 0.000000 0.000000 7.927559 13.138867 5.976681
1.708515 17.242216 -21.296997 4.378196 7.085874 2.568623 0.000000 0.000000 0.000000 -29.282166 -3.233199 8.579379 0.471773 4.404827 12.218418 1.021889 -5.270750 -18.073127 0.215499 2.988345 8.246370 0.000000 0.000000 0.000000 8.995976 10.003803 -31.065148 -0.685483 -5.293330 14.747049 -0.078276 -12.475375 -18.715874 -0.062705 -1.612853 4.436884 -5.746900 -2.361789 8.646987 0.846104 -3.613355 2.080752 4.472617 -1.778440 -2.265160 0.149473 -1.273835 -20.165164 -1.426373 -1.496545 15.366815 -0.690978 -0.850004 8.056481 0.000000 0.000000 0.000000 6.037448 4.924942 -24.327310 23.856048 -35.011584 7.623853 4.685746 5.952457 -41.295076 0.000000 0.000000 0.000000 -7.125000 0.000000 0.000000 -42.447920 66.663052 23.916249 0.000000 0.000000 0.000000 -5.052549 9.070780 -23.712917 -6.109701 -10.444896 -0.559054 -15.960078 9.180783 -15.597918 0.000000 0.000000 0.000000 7.125000 0.000000 0.000000 7.859450 13.897457 5.797485
1.701915 17.230790 -21.181886 4.335715 6.967981 2.764722 0.000000 0.000000 0.000000 -29.214542 -3.331573 9.001645 0.450590 4.306349 11.940140 1.000284 -4.883628 -17.899893 0.214362 2.979218 8.221005 0.000000 0.000000 0.000000 9.031088 10.074930 -31.475895 -0.714859 -5.403218 15.062188 -0.011316 -12.833966 -18.392224 -0.067308 -1.661436 4.571121 -5.687285 -2.263852 8.597885 0.980746 -3.470863 2.090686 4.563730 -1.709022 -2.239530 0.330294 -1.416804 -20.177103 -1.811501 -1.668076 15.357669 -0.870875 -0.960780 8.048793 0.000000 0.000000 0.000000 5.764478 5.056536 -24.311245 23.558126 -34.692880 7.453868 4.545457 6.025939 -41.732821 0.000000 0.000000 0.000000 -7.125000 0.000000 0.000000 -43.314064 66.932472 24.737712 0.000000 0.000000 0.000000 -5.282674 8.932343 -25.650647 -5.913631 -10.118061 -0.524001 -16.090584 10.721604 -15.861626 0.000000 0.000000 0.000000 7.125000 0.000000 0.000000 7.776930 13.615514 5.782784
1.695022 17.223085 -21.054661 4.504589 6.939641 2.869130 0.000000 0.000000 0.000000 -29.280773 -3.087148 9.408753 0.443741 4.274141 11.849204 1.009001 -5.004000 -17.971238 0.238016 3.139420 8.667165 0.000000 0.000000 0.000000 9.083639 9.552515 -31.683047 -0.738275 -5.488865 15.308347 0.068514 -12.984605 -17.573710 -0.042086 -1.322608 3.636946 -5.719243 -2.257705 8.802618 1.020295 -3.479346 1.984669 4.639007 -1.703041 -2.457810 0.392120 -1.317309 -20.074819 -2.076480 -1.498355 15.337931 -0.947203 -0.904433 8.024465 0.000000 0.000000 0.000000 5.461287 5.386203 -24.032029 23.074100 -34.168942 7.180224 4.345756 6.360972 -41.819006 0.000000 0.000000 0.000000 -7.125000 0.000000 0.000000 -43.652745 66.933265 24.961194 0.000000 0.000000 0.000000 -5.533208 9.240637 -25.480878 -5.903443 -10.100946 -0.522176 -16.126380 10.525033 -15.884261 0.000000 0.000000 0.000000 7.125000 0.000000 0.000000 7.753304 13.588987 5.769609
1.681412 17.212142 -20.933756 4.230958 6.852418 2.883385 0.000000 0.000000 0.000000 -28.897771 -2.947891 9.858868 0.436136 4.237853 11.746726 0.960998 -4.705908 -17.547463 0.209520 2.943925 8.122960 0.000000 0.000000 0.000000 9.491446 9.493166 -31.688787 -0.771237 -5.607351 15.649330 0.071501 -12.892752 -17.408599 -0.079460 -1.792480 4.933120 -5.446916 -2.184631 8.930703 1.186607 -3.356134 2.107465 4.650878 -1.646980 -2.421548 0.399356 -1.480737 -20.200036 -2.038696 -1.731000 15.256530 -0.965232 -1.010403 8.015282 0.000000 0.000000 0.000000 5.314242 5.482679 -24.108653 22.793439 -33.862115 7.022872 4.032824 6.448733 -41.906680 0.000000 0.000000 0.000000 -7.125000 0.000000 0.000000 -44.102120 66.900067 25.227211 0.000000 0.000000 0.000000 -5.665018 9.068708 -26.824092 -5.844947 -10.003304 -0.511971 -16.311262 11.494081 -15.884864 0.000000 0.000000 0.000000 7.125000 0.000000 0.000000 7.629599 13.570137 5.678053
